<?xml version="1.0" standalone="no"?><!DOCTYPE svg PUBLIC "-//W3C//DTD SVG 1.1//EN" "http://www.w3.org/Graphics/SVG/1.1/DTD/svg11.dtd"><svg t="1566962672982" class="icon" viewBox="0 0 1024 1024" version="1.1" xmlns="http://www.w3.org/2000/svg" p-id="1399" xmlns:xlink="http://www.w3.org/1999/xlink" width="200" height="200"><defs><style type="text/css"></style></defs><path d="M800 578.304a96 96 0 0 0-20.992-2.304h-86.624a96 96 0 0 0-72.96 33.6l-2.464 2.88h-70.56c-36.96 0-66.4 30.592-66.4 67.744V864H128a64 64 0 0 1-64-64V192a64 64 0 0 1 64-64h608a64 64 0 0 1 64 64v386.304z" fill="#F99C34" p-id="1400"></path><path d="M160 256m32 0l320 0q32 0 32 32l0 0q0 32-32 32l-320 0q-32 0-32-32l0 0q0-32 32-32Z" fill="#FFFFFF" p-id="1401"></path><path d="M160 416m32 0l224 0q32 0 32 32l0 0q0 32-32 32l-224 0q-32 0-32-32l0 0q0-32 32-32Z" fill="#FFCC87" p-id="1402"></path><path d="M840.096 644.48l-13.12-14.848A64 64 0 0 0 779.04 608h-86.624a64 64 0 0 0-48.64 22.4l-12.032 14.08h-85.312c-19.008 0-34.4 16-34.4 35.744v212.064C512 912 527.392 928 546.4 928h379.2C944.64 928 960 912 960 892.288v-212.064c0-19.744-15.392-35.744-34.4-35.744h-85.504z" fill="#FFCC87" p-id="1403"></path><path d="M736 893.664c-60.672 0-109.888-50.144-109.888-112s49.216-112 109.888-112c60.672 0 109.888 50.144 109.888 112s-49.216 112-109.888 112z m0-173.664a64 64 0 1 0 0 128 64 64 0 0 0 0-128z" fill="#FFFFFF" p-id="1404"></path><path d="M560 688m-32 0a32 32 0 1 0 64 0 32 32 0 1 0-64 0Z" fill="#FFFFFF" p-id="1405"></path></svg>