<?xml version="1.0" standalone="no"?><!DOCTYPE svg PUBLIC "-//W3C//DTD SVG 1.1//EN" "http://www.w3.org/Graphics/SVG/1.1/DTD/svg11.dtd"><svg t="1566961863913" class="icon" viewBox="0 0 1024 1024" version="1.1" xmlns="http://www.w3.org/2000/svg" p-id="1653" xmlns:xlink="http://www.w3.org/1999/xlink" width="200" height="200"><defs><style type="text/css"></style></defs><path d="M192 96h640a96 96 0 0 1 96 96v448H96V192a96 96 0 0 1 96-96z" fill="#2276FF" p-id="1654"></path><path d="M96 672h832v32a96 96 0 0 1-96 96H192a96 96 0 0 1-96-96v-32z" fill="#90BAFF" p-id="1655"></path><path d="M384 864v-64h256v64h128a32 32 0 0 1 0 64H256a32 32 0 0 1 0-64h128z" fill="#2276FF" p-id="1656"></path><path d="M406.624 350.4a32 32 0 0 0-45.248 45.248l90.496 90.496a32 32 0 0 0 45.28 0l180.992-180.992a32 32 0 0 0-45.248-45.28l-158.4 158.4-67.84-67.872z" fill="#FFFFFF" p-id="1657"></path></svg>