<?xml version="1.0" standalone="no"?><!DOCTYPE svg PUBLIC "-//W3C//DTD SVG 1.1//EN" "http://www.w3.org/Graphics/SVG/1.1/DTD/svg11.dtd"><svg t="1566962932837" class="icon" viewBox="0 0 1024 1024" version="1.1" xmlns="http://www.w3.org/2000/svg" p-id="1665" xmlns:xlink="http://www.w3.org/1999/xlink" width="200" height="200"><defs><style type="text/css"></style></defs><path d="M512 501.333333m-490.666667 0a490.666667 490.666667 0 1 0 981.333334 0 490.666667 490.666667 0 1 0-981.333334 0Z" fill="#FFF4E9" p-id="1666"></path><path d="M728.896 459.434667l36.117333-14.698667a7.978667 7.978667 0 0 0 4.565334-10.069333c-4.138667-11.733333-16.469333-33.130667-51.306667-31.573334l10.624 56.341334zM305.301333 459.434667l-36.117333-14.698667a7.957333 7.957333 0 0 1-4.544-10.069333c4.117333-11.733333 16.469333-33.130667 51.285333-31.573334l-10.624 56.341334z" fill="#FFDA62" opacity=".797" p-id="1667"></path><path d="M763.584 642.56v-119.168c0-22.698667-3.008-45.376-10.069333-66.88-3.797333-11.52-8.725333-22.506667-14.805334-28.757333-17.066667-17.472-25.578667-132.544-61.802666-155.114667-36.245333-22.570667-95.232-31.296-158.442667-31.296-63.232 0-122.24 8.746667-158.464 31.296-36.224 22.570667-44.757333 137.642667-61.802667 155.114667-6.08 6.250667-11.008 17.216-14.805333 28.757333-7.082667 21.504-10.069333 44.181333-10.069333 66.88v140.330667h0.213333v33.322666c0 19.242667 15.36 34.965333 34.133333 34.965334h17.045334c18.752 0 34.090667-15.722667 34.090666-34.986667v-33.28h319.936v33.28c0 19.264 15.36 34.986667 34.112 34.986667h17.045334c18.773333 0 34.112-15.722667 34.112-34.986667V646.826667c0-1.472-0.256-2.858667-0.426667-4.266667" fill="#FFA762" p-id="1668"></path><path d="M646.357333 308.693333c-28.288-17.6-74.346667-20.693333-123.690666-20.693333-49.365333 0-95.402667 3.093333-123.690667 20.693333-27.370667 16.981333-34.496 105.706667-46.976 122.666667 0 0 70.826667 27.306667 170.666667 27.306667 95.402667 0 170.666667-27.306667 170.666666-27.306667-12.48-16.96-19.626667-105.685333-46.976-122.666667" fill="#FFF4E9" p-id="1669"></path><path d="M316.010667 573.802667s-0.746667-40.426667 26.709333-32.853334c27.456 7.594667 56.832 16.682667 71.509333 29.248 5.632 4.8 18.048 25.642667 0 29.610667-18.069333 3.968-93.888 15.530667-98.218666-26.005333M729.92 573.802667s0.725333-40.426667-26.730667-32.853334c-27.434667 7.594667-56.810667 16.682667-71.509333 29.248-5.632 4.8-18.026667 25.642667 0 29.610667 18.069333 3.968 93.909333 15.530667 98.24-26.005333" fill="#FFD877" p-id="1670"></path></svg>