<?xml version="1.0" standalone="no"?><!DOCTYPE svg PUBLIC "-//W3C//DTD SVG 1.1//EN" "http://www.w3.org/Graphics/SVG/1.1/DTD/svg11.dtd"><svg t="1566962926093" class="icon" viewBox="0 0 1024 1024" version="1.1" xmlns="http://www.w3.org/2000/svg" p-id="1531" xmlns:xlink="http://www.w3.org/1999/xlink" width="200" height="200"><defs><style type="text/css"></style></defs><path d="M512 512m-490.666667 0a490.666667 490.666667 0 1 0 981.333334 0 490.666667 490.666667 0 1 0-981.333334 0Z" fill="#FFF4E9" p-id="1532"></path><path d="M359.210667 789.333333l-60.842667-53.333333a36.202667 36.202667 0 0 1-3.84-16.832l1.493333-354.304 130.773334 0.682667-1.493334 354.304a36.693333 36.693333 0 0 1-4.010666 16.810666L359.210667 789.333333z" fill="#FF9432" p-id="1533"></path><path d="M426.581333 328.533333l-130.773333-0.682666 0.298667-59.242667a34.133333 34.133333 0 0 1 34.304-33.92l62.528 0.298667a34.133333 34.133333 0 0 1 33.962666 34.346666l-0.32 59.2z" fill="#FFCC87" p-id="1534"></path><path d="M686.805333 234.666667h-128c-23.466667 0-42.666667 19.2-42.666666 42.666666v53.333334h32c11.733333 0 21.333333 9.6 21.333333 21.333333s-9.6 21.333333-21.333333 21.333333h-32v64h53.333333c11.733333 0 21.333333 9.6 21.333333 21.333334s-9.6 21.333333-21.333333 21.333333h-53.333333v64h32c11.733333 0 21.333333 9.6 21.333333 21.333333s-9.6 21.333333-21.333333 21.333334h-32v64h32c11.733333 0 21.333333 9.6 21.333333 21.333333s-9.6 21.333333-21.333333 21.333333h-32V746.666667c0 23.466667 19.2 42.666667 42.666666 42.666666h128c23.466667 0 42.666667-19.2 42.666667-42.666666V277.333333c0-23.466667-19.2-42.666667-42.666667-42.666666" fill="#FF9432" p-id="1535"></path></svg>